<svg xmlns="http://www.w3.org/2000/svg" width="250.831" height="229.79" viewBox="0 0 250.831 229.79"><g transform="translate(-56 -29.967)"><g transform="translate(56 29.967)"><g transform="translate(139.558 155.49)" fill="#fff" stroke-linecap="round" stroke-linejoin="round"><path d="M 55.63659286499023 62.34402847290039 C 28.81830406188965 62.34402847290039 7.000013828277588 40.52573776245117 7.000013828277588 13.7074499130249 C 7.000013828277588 -7.042992115020752 38.28459930419922 -52.10685348510742 55.63580703735352 -74.71877288818359 C 72.98713684082031 -52.10064315795898 104.2732009887695 -7.027233123779297 104.2732009887695 13.7074499130249 C 104.2732009887695 40.52573776245117 82.45491027832031 62.34402847290039 55.63659286499023 62.34402847290039 Z" stroke="none"/><path d="M 55.63659286499023 -63.1270751953125 C 35.74403381347656 -36.25637054443359 13.99999237060547 -1.232873916625977 13.99999237060547 13.70744895935059 C 13.99999237060547 36.66591644287109 32.67809295654297 55.34401702880859 55.63659286499023 55.34401702880859 C 78.5950927734375 55.34401702880859 97.273193359375 36.66591644287109 97.273193359375 13.70744895935059 C 97.273193359375 -1.232873916625977 75.52915954589844 -36.25637054443359 55.63659286499023 -63.1270751953125 M 55.63659286499023 -86.05788421630859 C 55.63659286499023 -86.05788421630859 111.273193359375 -17.01981925964355 111.273193359375 13.70744895935059 C 111.273193359375 44.4346809387207 86.36383056640625 69.34401702880859 55.63659286499023 69.34401702880859 C 24.90936279296875 69.34401702880859 -7.62939453125e-06 44.4346809387207 -7.62939453125e-06 13.70744895935059 C -7.62939453125e-06 -17.01981925964355 55.63659286499023 -86.05788421630859 55.63659286499023 -86.05788421630859 Z" stroke="none" fill="#000"/></g><g transform="translate(125.56 96.877)" fill="#fff" stroke-linecap="round" stroke-linejoin="round"><path d="M 26.75888824462891 -25.76585006713867 C 15.31240272521973 -25.76585006713867 6.000002384185791 -33.72114944458008 6.000002384185791 -43.49954986572266 C 6.000002384185791 -49.843017578125 17.17056465148926 -65.56061553955078 26.76263618469238 -76.94221496582031 C 36.50691604614258 -65.41565704345703 47.51777267456055 -49.92168426513672 47.51777267456055 -43.49954986572266 C 47.51777267456055 -33.72114944458008 38.20537567138672 -25.76585006713867 26.75888824462891 -25.76585006713867 Z" stroke="none"/><path d="M 26.75440406799316 -67.46554565429688 C 18.62965774536133 -57.14987182617188 12.31833648681641 -47.10829162597656 11.99999237060547 -43.49955368041992 C 11.99999237060547 -37.13923645019531 18.75874328613281 -31.76586151123047 26.75888824462891 -31.76586151123047 C 34.759033203125 -31.76586151123047 41.51778411865234 -37.13923645019531 41.52105712890625 -43.39022064208984 C 41.20136642456055 -47.06777191162109 34.88463592529297 -57.13332748413086 26.75440406799316 -67.46554565429688 M 26.75888824462891 -86.05788421630859 C 26.75888824462891 -86.05788421630859 53.51778411865234 -56.60732269287109 53.51778411865234 -43.49955368041992 C 53.51778411865234 -30.39179992675781 41.53740692138672 -19.76586151123047 26.75888824462891 -19.76586151123047 C 11.98036575317383 -19.76586151123047 -7.62939453125e-06 -30.39179992675781 -7.62939453125e-06 -43.49955368041992 C -7.62939453125e-06 -56.60732269287109 26.75888824462891 -86.05788421630859 26.75888824462891 -86.05788421630859 Z" stroke="none" fill="#000"/></g><g transform="translate(0 86.058)" fill="#fff" stroke-linecap="round" stroke-linejoin="round"><path d="M 76.15956115722656 133.7321014404297 C 39.67906188964844 133.7321014404297 9.999983787536621 101.3124465942383 9.999983787536621 61.46329498291016 C 9.999983787536621 30.79046249389648 52.26144790649414 -35.26495361328125 76.15956115722656 -69.02180480957031 C 100.0576782226562 -35.26495361328125 142.3191375732422 30.79046249389648 142.3191375732422 61.46329498291016 C 142.3191375732422 101.3124465942383 112.6400604248047 133.7321014404297 76.15956115722656 133.7321014404297 Z" stroke="none"/><path d="M 76.15956115722656 -51.56824493408203 C 49.98611450195312 -13.21182250976562 20.00001525878906 38.24169921875 20.00001525878906 61.46330261230469 C 20.00001525878906 95.79844665527344 45.19306182861328 123.7321014404297 76.15956115722656 123.7321014404297 C 107.1260604858398 123.7321014404297 132.3191070556641 95.79844665527344 132.3191070556641 61.46330261230469 C 132.3191070556641 38.24169921875 102.3330078125 -13.21182250976562 76.15956115722656 -51.56824493408203 M 76.15956115722656 -86.05789947509766 C 76.15956115722656 -86.05789947509766 152.3191070556641 16.02750015258789 152.3191070556641 61.46330261230469 C 152.3191070556641 106.8991012573242 118.2213134765625 143.7321014404297 76.15956115722656 143.7321014404297 C 34.09780883789062 143.7321014404297 1.52587890625e-05 106.8991012573242 1.52587890625e-05 61.46330261230469 C 1.52587890625e-05 16.02750015258789 76.15956115722656 -86.05789947509766 76.15956115722656 -86.05789947509766 Z" stroke="none" fill="#000"/></g><text transform="translate(39.66 184.598)" font-size="82" font-family="Pacifico-Regular, Pacifico"><tspan x="0" y="0">%</tspan></text><text transform="translate(181.228 191.427)" font-size="69" font-family="ConcertOne-Regular, Concert One"><tspan x="0" y="0">2</tspan></text></g></g></svg>