<svg xmlns="http://www.w3.org/2000/svg" width="286.302" height="216.799" viewBox="0 0 286.302 216.799"><g transform="translate(-1132.755 -564.433)"><g transform="translate(1132.755 579.139)"><g transform="translate(0 0)"><path d="M201.186,76.45c-1.747.945-3.518,1.992-5.266,3.091a126.856,126.856,0,0,0-15.7,12.209L168.94,77.6a95.2,95.2,0,0,1,12.581-10.753,84.744,84.744,0,0,1,11.137-6.769c1.538-.843,3.075-1.635,4.66-2.375-7.432-14.431-18.126-24.776-30.242-31.161a68.151,68.151,0,0,0-38.886-7.407A66.858,66.858,0,0,0,91.8,34.714c-12.185,10.345-21.435,25.823-25,46.334L65.68,87.459l-5.825,1.124A74.735,74.735,0,0,0,44.571,93.1,49.841,49.841,0,0,0,32.992,99.9a40.077,40.077,0,0,0-7.013,7.152c-6.128,8.046-8.97,18.135-8.9,28.352a54.649,54.649,0,0,0,8.83,29.45,46.717,46.717,0,0,0,7.362,8.684,36.468,36.468,0,0,0,9.622,6.334,45.2,45.2,0,0,0,11.859,3.423H223.786a80.943,80.943,0,0,0,21.668-8.889,48.115,48.115,0,0,0,14.888-13.818c5.825-8.506,8.69-20.536,8.807-32.873.14-12.95-2.749-25.951-8.364-35.4a52.658,52.658,0,0,0-5.242-7.382c-8.411-9.936-19.082-14.278-30.172-14.355a54.663,54.663,0,0,0-24.184,5.875Zm13.141-23.7a61.111,61.111,0,0,1,11.16-.92c15.657.128,30.754,6.258,42.637,20.306a74.1,74.1,0,0,1,7.06,9.961c7.456,12.567,11.277,29.348,11.113,45.772-.163,16.117-4.124,32.158-12.232,43.958a65.984,65.984,0,0,1-20.2,18.952,98.014,98.014,0,0,1-27.213,11.06l-1.911.255H54.473l-1.072-.1a61.4,61.4,0,0,1-16.985-4.8,53.265,53.265,0,0,1-14.1-9.272A64.006,64.006,0,0,1,12.07,175.861,74.722,74.722,0,0,1,0,135.453C-.092,121,4.008,106.616,12.862,94.968A57.435,57.435,0,0,1,22.973,84.649a66.464,66.464,0,0,1,15.47-9.067,87.617,87.617,0,0,1,12.814-4.291c5.126-22.324,16.053-39.514,30.1-51.442A83.624,83.624,0,0,1,174.485,9.657c16.332,8.608,30.591,22.937,39.841,43.09Z" transform="translate(0.001 0.002)"/></g><text transform="translate(53.876 170.705)" font-size="93" font-family="ConcertOne-Regular, Concert One"><tspan x="0" y="0">CO2</tspan></text></g><g transform="translate(1259.363 557.677)"><g transform="translate(43.793 7.636) rotate(20)" fill="#fff"><path d="M 49.06322860717773 93.41114807128906 C 42.7894287109375 93.41114807128906 36.74130249023438 92.20684051513672 31.08688354492188 89.83165740966797 C 25.63421249389648 87.54122161865234 20.78335762023926 84.26825714111328 16.6690845489502 80.10365295410156 C 8.563830375671387 71.89930725097656 4.177138805389404 61.03969192504883 4.317066192626953 49.5252571105957 C 4.390029907226562 43.5206184387207 5.671556949615479 37.67983627319336 8.126029968261719 32.16514587402344 C 10.50541210174561 26.81914710998535 13.88139343261719 21.99934577941895 18.16017532348633 17.83960151672363 C 22.44848442077637 13.67058277130127 27.42372131347656 10.37820053100586 32.94764709472656 8.053910255432129 C 38.66572189331055 5.647928237915039 44.72548294067383 4.390673637390137 50.95857620239258 4.317073822021484 C 51.14884948730469 4.3148193359375 51.34166717529297 4.313692092895508 51.53170394897461 4.313692092895508 C 57.80550384521484 4.313692092895508 63.85363006591797 5.518001079559326 69.50804901123047 7.893182754516602 C 74.96072387695312 10.18361949920654 79.81157684326172 13.45658302307129 83.92584991455078 17.62118339538574 C 92.03110504150391 25.82552909851074 96.41779327392578 36.68514633178711 96.27786254882812 48.19958114624023 C 96.20490264892578 54.20421981811523 94.92337799072266 60.04500198364258 92.46890258789062 65.5596923828125 C 90.08952331542969 70.90569305419922 86.71353912353516 75.72549438476562 82.43475341796875 79.88523864746094 C 78.14643096923828 84.05425262451172 73.17121124267578 87.34663391113281 67.64726257324219 89.67092895507812 C 61.92919540405273 92.07691192626953 55.86944961547852 93.33416748046875 49.63635635375977 93.40776824951172 C 49.44608306884766 93.41001892089844 49.25326538085938 93.41114807128906 49.06322860717773 93.41114807128906 Z" stroke="none"/><path d="M 51.53164672851562 -0.6863327026367188 L 51.01762390136719 9.316688537597656 C 28.29021453857422 9.585121154785156 9.583236694335938 27.64984893798828 9.316696166992188 49.58600997924805 C 9.193122863769531 59.75350952148438 13.06746673583984 69.34358215332031 20.22603607177734 76.58966827392578 C 27.75714874267578 84.21285247802734 37.98002243041992 88.41011810302734 49.57730865478516 88.40812683105469 C 72.30471801757812 88.13971710205078 91.01167297363281 70.07498931884766 91.27823638916016 48.13885116577148 C 91.40180969238281 37.97132873535156 87.52744293212891 28.38124084472656 80.36887359619141 21.13514709472656 C 72.83773803710938 13.511962890625 62.59648895263672 9.313667297363281 51.53164672851562 9.313667297363281 L 51.53164672851562 -0.6863327026367188 M 51.53164291381836 -0.68634033203125 C 79.39375305175781 -0.68634033203125 101.607536315918 21.10115051269531 101.2775115966797 48.26034927368164 C 100.9449920654297 75.62330627441406 77.85089874267578 98.07492065429688 49.69539642333984 98.40741729736328 C 21.54033660888672 98.73992919921875 -1.015098571777344 76.82744598388672 -0.6825790405273438 49.4644889831543 C -0.3500823974609375 22.10153198242188 22.74403381347656 -0.3500823974609375 50.8995361328125 -0.6826019287109375 C 51.10918807983398 -0.6850814819335938 51.32261657714844 -0.68634033203125 51.53164291381836 -0.68634033203125 Z" stroke="none" fill="#000"/></g><text transform="translate(53.345 97.54)" font-size="82" font-family="ConcertOne-Regular, Concert One"><tspan x="0" y="0">1</tspan></text></g></g></svg>