<svg xmlns="http://www.w3.org/2000/svg" width="309.28" height="236.723" viewBox="0 0 309.28 236.723">
  <g id="co2_air_1" transform="translate(-744 -179.277)">
    <g id="Group_4" data-name="Group 4" transform="translate(16 -115)">
      <g id="cloud-icon" transform="translate(728.001 331.863)">
        <path id="Path_5" data-name="Path 5" d="M217.333,75.332c-1.888.931-3.8,1.963-5.688,3.045a136.22,136.22,0,0,0-16.964,12.031L182.5,76.465a100.959,100.959,0,0,1,13.591-10.6,93.606,93.606,0,0,1,12.031-6.67c1.661-.831,3.322-1.611,5.034-2.341a74.176,74.176,0,0,0-32.669-30.706,79.73,79.73,0,0,0-42.007-7.3A75.908,75.908,0,0,0,99.166,34.207C86,44.4,76.011,59.652,72.16,79.863L70.952,86.18l-6.292,1.107a86.663,86.663,0,0,0-16.511,4.455A55.221,55.221,0,0,0,35.64,98.437a41.491,41.491,0,0,0-7.576,7.047,42.727,42.727,0,0,0-9.614,27.937,50.516,50.516,0,0,0,9.539,29.02A47.423,47.423,0,0,0,35.942,171a39.918,39.918,0,0,0,10.395,6.242,52.455,52.455,0,0,0,12.811,3.373h182.6a92.3,92.3,0,0,0,23.407-8.759,50.433,50.433,0,0,0,16.083-13.616c6.292-8.381,9.388-20.236,9.514-32.392.151-12.761-2.97-25.571-9.036-34.884a52.229,52.229,0,0,0-5.663-7.274,43.673,43.673,0,0,0-32.593-14.145,63.714,63.714,0,0,0-26.125,5.789Zm14.2-23.357a72.223,72.223,0,0,1,12.056-.906c16.913.126,33.223,6.166,46.059,20.009a73.478,73.478,0,0,1,7.626,9.816c8.054,12.383,12.182,28.919,12.005,45.1-.176,15.881-4.455,31.687-13.214,43.315a69.081,69.081,0,0,1-21.821,18.675,111.837,111.837,0,0,1-29.4,10.9l-2.064.252H58.845l-1.158-.1A71.292,71.292,0,0,1,39.34,194.3a58.305,58.305,0,0,1-15.227-9.136,65,65,0,0,1-11.074-11.88A69.063,69.063,0,0,1,0,133.472,61.134,61.134,0,0,1,13.894,93.58,59.456,59.456,0,0,1,24.817,83.412a73.645,73.645,0,0,1,16.712-8.935,101.11,101.11,0,0,1,13.843-4.228c5.537-22,17.341-38.936,32.518-50.69A94.486,94.486,0,0,1,136.768.456,98.011,98.011,0,0,1,188.49,9.516a92.879,92.879,0,0,1,43.039,42.46Z" transform="translate(0 0)"/>
      </g>
      <g id="Path_6" data-name="Path 6" transform="translate(897.876 380.334)" fill="#fff" stroke-linecap="round" stroke-linejoin="round">
        <path d="M 49.103515625 45.09610366821289 C 25.33615875244141 45.09610366821289 5.999991893768311 25.75993728637695 5.999991893768311 1.99258017539978 C 5.999991893768311 -16.42495727539062 33.80619812011719 -56.43019485473633 49.10285949707031 -76.34243011474609 C 64.39961242675781 -56.42485809326172 92.20703887939453 -16.41138076782227 92.20703887939453 1.99258017539978 C 92.20703887939453 25.75993728637695 72.87087249755859 45.09610366821289 49.103515625 45.09610366821289 Z" stroke="none"/>
        <path d="M 49.1010856628418 -66.41956329345703 C 31.43685913085938 -42.61800003051758 11.99998474121094 -11.36097717285156 11.99998474121094 1.992572784423828 C 11.99998474121094 22.45151519775391 28.64457702636719 39.09610748291016 49.103515625 39.09610748291016 C 69.56245422363281 39.09610748291016 86.20701599121094 22.45151519775391 86.20701599121094 1.992572784423828 C 86.20701599121094 -11.34093856811523 66.76676177978516 -42.60609436035156 49.1010856628418 -66.41956329345703 M 49.103515625 -86.05789184570312 C 49.103515625 -86.05789184570312 98.20701599121094 -25.12654304504395 98.20701599121094 1.992572784423828 C 98.20701599121094 29.11172485351562 76.22263336181641 51.09610748291016 49.103515625 51.09610748291016 C 21.98439788818359 51.09610748291016 -1.52587890625e-05 29.11172485351562 -1.52587890625e-05 1.992572784423828 C -1.52587890625e-05 -25.12654304504395 49.103515625 -86.05789184570312 49.103515625 -86.05789184570312 Z" stroke="none" fill="#000"/>
      </g>
      <text id="CO2" transform="translate(770 509)" font-size="105" font-family="ConcertOne-Regular, Concert One"><tspan x="0" y="0">CO2</tspan></text>
      <text id="_1" data-name="1" transform="translate(928 403)" font-size="80" font-family="ConcertOne-Regular, Concert One"><tspan x="0" y="0">1</tspan></text>
    </g>
    <g id="wind-svgrepo-com" transform="translate(958 343)">
      <path id="Path_13" data-name="Path 13" d="M3,14.093H7.437m4.437-4.754V8.546a5.546,5.546,0,1,1,5.546,5.546H14.093" transform="translate(1.219 0)" fill="none" stroke="#000" stroke-linecap="round" stroke-width="6"/>
      <path id="Path_14" data-name="Path 14" d="M4,14H6.219M28.4,20.656v1.109A7.765,7.765,0,1,0,36.17,14H15.093" transform="translate(2.437 13.404)" fill="none" stroke="#000" stroke-linecap="round" stroke-width="6"/>
      <path id="Path_15" data-name="Path 15" d="M2,19.53H15.312m15.53-6.656V11.765a7.765,7.765,0,1,1,7.765,7.765H24.741" transform="translate(0 1.219)" fill="none" stroke="#000" stroke-linecap="round" stroke-width="6"/>
    </g>
  </g>
</svg>
