<svg xmlns="http://www.w3.org/2000/svg" width="22.829" height="21.519" viewBox="0 0 22.829 21.519">
  <g id="dou_left" transform="translate(-444 -110)">
    <path id="angle-left-svgrepo-com" d="M13.866,17.56l7.242-7.242a2.048,2.048,0,0,0-2.9-2.9l-8.69,8.69h0a2,2,0,0,0,0,2.9l8.69,8.69a1.878,1.878,0,0,0,1.448.621h0a1.878,1.878,0,0,0,1.448-.621,2,2,0,0,0,0-2.9Z" transform="translate(445.1 103.2)"/>
    <path id="angle-left-svgrepo-com-2" data-name="angle-left-svgrepo-com" d="M13.866,17.56l7.242-7.242a2.048,2.048,0,0,0-2.9-2.9l-8.69,8.69h0a2,2,0,0,0,0,2.9l8.69,8.69a1.878,1.878,0,0,0,1.448.621h0a1.878,1.878,0,0,0,1.448-.621,2,2,0,0,0,0-2.9Z" transform="translate(435.1 103.2)"/>
  </g>
</svg>
