<svg xmlns="http://www.w3.org/2000/svg" width="185.75" height="229.789" viewBox="0 0 185.75 229.789"><g transform="translate(4.25)"><g transform="translate(18.5)"><path d="M159.845,135.245V31.911c0-17.6-15.59-31.911-34.752-31.911S90.347,14.315,90.347,31.911V135.244C76.113,145.2,67.73,160.584,67.73,177.1c0,29.052,25.732,52.687,57.363,52.687S182.46,206.155,182.46,177.1C182.46,160.586,174.077,145.2,159.845,135.245Zm-34.752,80.768c-23.359,0-42.363-17.454-42.363-38.91,0-13.129,7.188-25.292,19.228-32.537a6.765,6.765,0,0,0,3.39-5.762V31.911c0-10,8.858-18.134,19.746-18.134s19.752,8.135,19.752,18.134V138.8a6.762,6.762,0,0,0,3.39,5.762c12.038,7.246,19.226,19.409,19.226,32.537C167.46,198.558,148.454,216.012,125.093,216.012Z" transform="translate(-67.73)"/><path d="M128.246,154.744V68.918a6.494,6.494,0,1,0-12.988,0v85.825a21.588,21.588,0,1,0,12.988,0Z" transform="translate(-64.387 0.432)"/></g><g transform="translate(117.23 7)" fill="#fff" stroke="#000" stroke-width="8"><circle cx="14" cy="14" r="14" stroke="none"/><circle cx="14" cy="14" r="10" fill="none"/></g><text transform="translate(141.5 213.789)" font-size="80" font-family="ConcertOne-Regular, Concert One"><tspan x="0" y="0">1</tspan></text><text transform="translate(143.5 69.094)" font-size="70" font-family="ConcertOne-Regular, Concert One"><tspan x="0" y="0">C</tspan></text><line x2="35" transform="translate(0 27.094)" fill="none" stroke="#000" stroke-linecap="round" stroke-width="8.5"/><line x2="23" transform="translate(12 44.094)" fill="none" stroke="#000" stroke-linecap="round" stroke-width="8.5"/><line x2="23" transform="translate(12 95.094)" fill="none" stroke="#000" stroke-linecap="round" stroke-width="8.5"/><path d="M23,0" transform="translate(12 50.602)" fill="none" stroke="#000" stroke-linecap="round" stroke-width="8"/><path d="M23,0" transform="translate(12 102.036)" fill="none" stroke="#000" stroke-linecap="round" stroke-width="8"/><line x2="23" transform="translate(12 61.094)" fill="none" stroke="#000" stroke-linecap="round" stroke-width="8.5"/><line x2="23" transform="translate(12 112.095)" fill="none" stroke="#000" stroke-linecap="round" stroke-width="8.5"/><line x2="35" transform="translate(0 129.095)" fill="none" stroke="#000" stroke-linecap="round" stroke-width="8.5"/><line x2="35" transform="translate(1 78.094)" fill="none" stroke="#000" stroke-linecap="round" stroke-width="8.5"/></g></svg>